<svg xmlns="http://www.w3.org/2000/svg" viewBox="0 0 160 160"><defs><style>.cls-1{fill:#3bb1e6;}.cls-2{fill:#0d3b49;}</style></defs><g id="logos"><g id="ico_blog"><path class="cls-1" d="M150.35,136.57l-28.09.21-14.55-52H5.5L21.66,144H154.5ZM27.76,137.73,14.18,91.15h87.47l12.95,46.58Z"/><path class="cls-2" d="M83.82,16H14.46V74.81H39.58l29,21.1-2.45-21.1H83.77ZM59.91,69.69l2.43,16-20.56-16h-22v-48H78.58V69.69Z"/><rect class="cls-1" x="51.44" y="105.85" width="34.35" height="4.28"/><rect class="cls-1" x="58.37" y="117.64" width="34.35" height="4.28"/><path class="cls-2" d="M33.22,63.88l2.72-9.5L55.6,34.57l6.79,6.93-9.12,9.11L43,60.91Z"/><path class="cls-2" d="M64.67,39.29,58,32.51l3.47-3.67,2.22.23,4.26,4.28V36Z"/></g></g></svg>